<svg width="116" height="143" viewBox="0 0 116 143" fill="none" xmlns="http://www.w3.org/2000/svg">
<path d="M87 30.5C87 47.3447 73.1208 61 56 61C38.8792 61 25 47.3447 25 30.5C25 13.6553 38.8792 0 56 0C73.1208 0 87 13.6553 87 30.5Z" fill="#157DC4"/>
<path d="M0.0447405 104.36C-1.13848 74.1554 21.4412 63.2614 32.879 61.5899L55.9517 76.3381L78.1371 61C107.244 61.7079 112.943 91.7746 112.155 106.719H102.393V89.0216H79.3203V106.719H61.8678V122.353C58.3182 120.937 38.6965 122.942 29.3294 124.122C6.37495 128.37 0.241943 112.717 0.0447405 104.36Z" fill="#157DC4"/>
<path d="M83.7573 110.259V93.446H97.9559V112.029H116V124.122H97.9559V143H83.7573V124.122H66.8965V110.259H83.7573Z" fill="#157DC4"/>
</svg>
