<svg width="37" height="39" viewBox="0 0 37 39" fill="none" xmlns="http://www.w3.org/2000/svg">
<path d="M23.5 8C23.5 12.173 20.3361 15.5 16.5 15.5C12.6639 15.5 9.5 12.173 9.5 8C9.5 3.82698 12.6639 0.5 16.5 0.5C20.3361 0.5 23.5 3.82698 23.5 8Z" stroke="#0055FF"/>
<path d="M1 25.3563C10.4642 14.4946 22.868 18.3415 27.8869 21.6226L19.6967 31.2114L14.1539 25.3563C9.76927 23.9137 8.77652 27.9869 9.52108 30.1083L13.6575 34.8603H4.1437C1.74456 34.9451 1 33.6157 1 32.8237V25.3563Z" stroke="#0055FF"/>
<path d="M25.8187 34.8603L31.7752 27.9869V31.7206C31.9406 35.1997 28.08 35.228 25.8187 34.8603Z" stroke="#0055FF"/>
<path d="M19.6967 34.5209L34.0916 18.1435C36.0771 17.5325 36.1322 19.0203 35.9116 19.8406L19.6967 38L12.5821 30.278C11.126 28.8524 11.3135 27.8172 11.5893 27.4777C12.1188 26.9346 12.913 27.2514 13.2439 27.4777L19.6967 34.5209Z" stroke="#0055FF"/>
</svg>
