<svg width="26" height="26" viewBox="0 0 26 26" fill="none" xmlns="http://www.w3.org/2000/svg">
<path d="M22.1216 4.11457L22.0404 4.19628M22.0404 4.19628L11.802 14.4911L8.30795 10.9778L6.76406 12.5302L11.802 17.5959L23.5842 5.74867L22.0404 4.19628ZM15.6211 3.62434L17.4087 1.82683C15.594 1.09149 11.0707 0.176393 7.49538 2.39877C3.02625 5.17674 -3.88059 13.5923 6.19527 22.6616C8.90383 24.8404 15.9461 27.4495 22.1216 20.4556C23.2321 19.1483 25.2906 15.8147 24.9656 12.9387H22.5279C22.4467 14.709 21.6178 18.6907 18.9526 20.4556C15.6211 22.6616 7.57663 25.1944 3.83881 15.4716C2.97208 10.9506 4.11509 2.2517 15.6211 3.62434Z" stroke="#0055FF"/>
</svg>
