<svg width="34" height="34" viewBox="0 0 34 34" fill="none" xmlns="http://www.w3.org/2000/svg">
<circle cx="17" cy="17" r="17" fill="#0325BC"/>
<path d="M17 14.5H19H21.5H23H25M17 18H20H22.5M17 21H19.5M22.5 12H15V23H21C20.8333 23.8333 19.8 25.5 17 25.5C19 25.3333 23.1 24.6 23.5 23H27V12H22.5Z" stroke="white"/>
<path d="M10.4982 10.0317C11.454 9.96619 11.5946 10.6479 11.5454 10.9969L11.3625 13.0275C11.2142 14.1317 10.426 14.3988 10.0505 14.3943C9.32609 14.5101 9.2259 15.1732 9.26636 15.4904L9.50684 19.2647C9.50803 20.5335 10.2029 20.6272 10.5502 20.5155C11.5797 20.2722 12.2929 22.3146 12.5208 23.3662C12.6149 24.3557 11.1996 24.8705 10.4801 25.0042C6.9045 25.4432 6.91707 17.1237 7.37031 12.9091C7.80567 10.3388 9.3035 10.1135 10.4982 10.0317Z" fill="#0229BD" stroke="white"/>
</svg>
