<svg width="28" height="27" viewBox="0 0 28 27" fill="none" xmlns="http://www.w3.org/2000/svg">
<path d="M12.1636 10.2273C13.7091 9.91816 16.1509 9.97998 13.5546 12.7M15.4091 14.0909C16.8 13.0091 19.0255 10.3509 16.8 8.37271C14.5746 6.39453 12.1636 7.54846 11.2364 8.37271M11.94 10.3391L12.0254 10.5098L12.2127 10.4724C12.587 10.3975 13.0114 10.3461 13.3951 10.3507C13.7892 10.3554 14.0971 10.419 14.2744 10.5362C14.3563 10.5904 14.4029 10.651 14.4257 10.7195C14.4491 10.7902 14.4558 10.8956 14.4099 11.0525C14.3154 11.3761 14.0167 11.8534 13.3757 12.5253L11.9869 13.9141L11.9136 13.9873V14.0909V16.5636V16.8136H12.1636H15.4091H15.6591V16.5636V14.2117C16.3593 13.6466 17.2366 12.7177 17.6902 11.667C17.9289 11.1142 18.0559 10.5144 17.9643 9.91108C17.8721 9.3031 17.5614 8.71498 16.9661 8.18585C15.7943 7.14423 14.5598 6.92037 13.4956 7.07437C12.4425 7.22675 11.5641 7.74688 11.0703 8.18585L10.9271 8.31314L11.0128 8.48451L11.94 10.3391ZM13.7313 12.8768L13.7314 12.8768L13.7354 12.8726C14.3912 12.1856 14.7604 11.6358 14.8899 11.1928C14.956 10.9662 14.9637 10.7534 14.9002 10.5621C14.836 10.3686 14.7078 10.2234 14.5502 10.1192C14.2483 9.91957 13.8183 9.8557 13.4011 9.85073C13.0393 9.84643 12.6542 9.88639 12.303 9.94701L11.5484 8.43766C12.0012 8.08075 12.724 7.69124 13.5672 7.56922C14.4965 7.43474 15.5803 7.623 16.6339 8.55956C17.1514 9.01953 17.397 9.50549 17.47 9.98609C17.5436 10.4713 17.4445 10.9746 17.2312 11.4688C16.8018 12.4634 15.9323 13.3672 15.2556 13.8935L15.1591 13.9686V14.0909V16.3136H12.4136V14.1944L13.7313 12.8768ZM23.6591 13.7818C23.6591 18.9356 19.4811 23.1136 14.3273 23.1136C9.17346 23.1136 4.99547 18.9356 4.99547 13.7818C4.99547 8.62798 9.17346 4.44998 14.3273 4.44998C19.4811 4.44998 23.6591 8.62798 23.6591 13.7818Z" stroke="#0055FF" stroke-width="0.5"/>
<circle cx="14.3273" cy="13.7818" r="12.1727" stroke="#0055FF"/>
<circle cx="14" cy="19" r="0.75" stroke="#0055FF" stroke-width="0.5"/>
<path d="M4.28182 6.36362L1.5 3.5818L3.81818 1.26362L6.44545 3.89089M21.7454 3.73634L24.5273 0.954529L26.8454 3.27271L24.0636 6.05453" stroke="#0055FF"/>
</svg>
