<svg width="136" height="43" viewBox="0 0 136 43" fill="none" xmlns="http://www.w3.org/2000/svg">
<path fill-rule="evenodd" clip-rule="evenodd" d="M27.2066 35.6161C33.3674 32.5299 37.5967 26.158 37.5967 18.7984C37.5967 8.41631 29.1804 0 18.7984 0C8.41631 0 0 8.41631 0 18.7984C0 29.1804 8.41631 37.5967 18.7984 37.5967C21.16 37.5967 23.42 37.1612 25.5022 36.3662C27.8903 41.6826 32.5615 47.8975 40.9055 36.4247C37.7733 37.6108 31.7041 38.58 27.2066 35.6161Z" fill="#4845D2"/>
<path d="M17.2537 18.5447L12.1268 13.4179L7 18.5447L17.2537 28.7984L30.9252 15.1268L25.7984 10L17.2537 18.5447Z" fill="white"/>
<path d="M43.0765 13.6343H46.1722V22.0425C46.1722 22.7326 46.2666 23.3478 46.4554 23.8882C46.6442 24.422 46.9241 24.8745 47.2952 25.2456C47.6728 25.6167 48.1383 25.8999 48.6917 26.0952C49.2451 26.284 49.8896 26.3784 50.6253 26.3784C51.3545 26.3784 51.9957 26.284 52.5491 26.0952C53.109 25.8999 53.5745 25.6167 53.9456 25.2456C54.3232 24.8745 54.6064 24.422 54.7952 23.8882C54.984 23.3478 55.0784 22.7326 55.0784 22.0425V13.6343H58.1741V22.4136C58.1741 23.4162 58.0049 24.3276 57.6663 25.1479C57.3278 25.9683 56.8362 26.6714 56.1917 27.2573C55.5472 27.8433 54.7562 28.2957 53.8187 28.6147C52.8877 28.9338 51.8232 29.0933 50.6253 29.0933C49.4274 29.0933 48.3597 28.9338 47.4222 28.6147C46.4912 28.2957 45.7034 27.8433 45.0589 27.2573C44.4144 26.6714 43.9228 25.9683 43.5843 25.1479C43.2457 24.3276 43.0765 23.4162 43.0765 22.4136V13.6343ZM61.5628 13.6343H64.678V28.8979H61.5628V13.6343ZM75.6546 18.0581L77.1194 16.271H67.9495V13.6343H82.8812L74.3362 24.3667L72.8128 26.2612H82.4026V28.8979H67.1976L75.6546 18.0581ZM92.3538 18.0581L93.8187 16.271H84.6487V13.6343H99.5804L91.0355 24.3667L89.512 26.2612H99.1019V28.8979H83.8968L92.3538 18.0581ZM102.032 13.6343H115.03V16.3491H105.127V19.396H113.897V21.9448H105.127V26.1929H115.235V28.8979H102.032V13.6343ZM118.672 13.6343H126.436C127.608 13.6343 128.623 13.758 129.483 14.0054C130.342 14.2463 131.055 14.5978 131.621 15.0601C132.188 15.5223 132.608 16.0854 132.881 16.7495C133.161 17.4136 133.301 18.1655 133.301 19.0054C133.301 19.5718 133.233 20.1121 133.096 20.6265C132.959 21.1343 132.748 21.603 132.461 22.0327C132.181 22.4624 131.826 22.8465 131.397 23.1851C130.967 23.5171 130.463 23.7938 129.883 24.0151L133.203 28.8979H129.414L126.543 24.562H126.455L121.768 24.5522V28.8979H118.672V13.6343ZM126.514 21.8765C127.1 21.8765 127.611 21.8081 128.047 21.6714C128.49 21.5347 128.858 21.3426 129.151 21.0952C129.45 20.8478 129.672 20.5483 129.815 20.1968C129.964 19.8387 130.039 19.4416 130.039 19.0054C130.039 18.1525 129.746 17.495 129.16 17.0327C128.575 16.564 127.692 16.3296 126.514 16.3296H121.768V21.8765H126.514Z" fill="#4845D2"/>
</svg>
