<svg width="22" height="25" viewBox="0 0 22 25" fill="none" xmlns="http://www.w3.org/2000/svg">
<path d="M8.00003 4C9.00003 2 11.5 -0.800002 13.5 4M8.00003 4C10.4 3.6 12.6667 3.83333 13.5 4M8.00003 4C6.50003 5.16667 3.60003 8.4 4.00003 12C4.21454 13.9306 3.96891 15.7691 3.50002 17.2788M13.5 4C13.5 4.5 18.5 7 17.7938 12C17.5243 13.9077 17.8687 15.7396 18.4261 17.2788M3.50002 17.2788H18.4261M3.50002 17.2788C2.87598 19.2879 2 21 1.00002 21C0.000163853 21 5.88324 21 8.00003 21M18.4261 17.2788C19.0375 18.9668 19.905 20.3026 20.5 21C17.8569 21 15.6168 21 13.5 21M11 6.5C9.50002 6.5 6.50002 7.4 6.50002 11M8.00003 21C9.86527 21 11.6348 21 13.5 21M8.00003 21C9.1667 23.3333 11.5 26.5 13.5 21" stroke="#0055FF"/>
</svg>
