<?xml version="1.0" encoding="utf-8"?>
<!-- Generator: Adobe Illustrator 27.5.0, SVG Export Plug-In . SVG Version: 6.00 Build 0)  -->
<svg version="1.1" xmlns="http://www.w3.org/2000/svg" xmlns:xlink="http://www.w3.org/1999/xlink" x="0px" y="0px"
	 viewBox="100 100" style="enable-background:new 100 100;" xml:space="preserve">

<g id="Objects_1_">
	<g id="XMLID_1_">
		<path id="XMLID_453_" style="fill:#FBBC08;" d="M147.633,157.574c-1-0.61-2.08-0.3-2.36,0.83c-0.17,0.69-0.27,1.54-0.01,2.17
			c1.36,3.34,2.71,6.71,4.34,9.93c1.42,2.82,4.1,2.83,5.89,0.18c0.91-1.34,1.68-2.77,2.56-4.14c0.31-0.47,0.77-0.84,1.17-1.26
			c0.33,0.35,0.6,0.51,0.62,0.68c0.15,2.36,0.26,4.71,0.38,6.99c-2.66,1.05-16.66,2.4-20.59,1.95c-0.55-6.32-1.09-12.5-1.65-18.9
			c1.25-0.32,2.31-0.85,3.35-0.8c3.8,0.15,7.41-1,11.11-1.45c1.86-0.23,3.7-0.43,5.41-0.13c0.87,0.91,0.75,1.76,0.26,2.53
			c-1.74,2.73-3.54,5.42-5.34,8.16c-1.49-0.45-1.56-1.71-2-2.65C150.023,160.054,149.203,158.544,147.633,157.574z"/>
		<path id="XMLID_452_" style="fill:#FBBC08;" d="M156.363,218.454c1.32,0.2,2.56,0.03,3.35-1.12c0.62-0.92,1.02-2,1.53-2.99
			c0.69-1.33,1.4-2.64,2.09-3.97c0.18-0.32,0.34-0.66,0.84-1.62c1.13,4.39,0.99,7.9,0.76,11.59c-0.83,0.19-1.52,0.47-2.21,0.49
			c-2.87,0.1-5.74,0.06-8.6,0.16c-2.62,0.1-5.23,0.32-7.84,0.44c-1.23,0.06-2.47,0.01-3.8,0.01c-1.16-2.27-0.46-4.69-0.76-6.98
			c-0.31-2.34-0.43-4.72-0.74-7.06c-0.3-2.33-0.89-4.64-0.29-7.22c0.73-0.12,1.43-0.27,2.14-0.33c4.96-0.42,9.93-0.77,14.89-1.25
			c1.81-0.17,3.07,0.69,4.47,1.73c-1.49,2.64-2.89,5.25-4.84,7.7c-1.58-2.27-2.34-4.93-4.59-6.39c-1.25,0.03-1.55,0.89-1.6,1.77
			c-0.05,0.72,0.14,1.47,0.34,2.18c1.01,3.6,2.08,7.18,3.06,10.79C154.843,217.424,155.163,218.264,156.363,218.454z"/>
		<path id="XMLID_448_" style="fill:#FBBC08;" d="M286.893,353.264c-1.22,0.99-2.34,1.04-3.39,1.12c-2.61,0.22-5.23,0.38-7.85,0.49
			c-12.73,0.56-25.46,0.68-38.2,0.04c-5.85-0.29-11.73-0.4-17.6-0.27c-4.6,0.11-9.2,0.7-13.8,1.09c-1.47,0.13-2.95,0.44-4.37-0.12
			c-0.38-1.32,0.16-2.28,0.85-3.18c1.82-2.38,3.63-4.76,5.46-7.12c2.44-3.15,4.9-6.3,7.37-9.44c0.22-0.28,0.56-0.46,1.05-0.84
			c2.81,1.34,5.93,1.39,9.04,1.38c6.62-0.01,13.24,0.08,19.86-0.14c7.1-0.23,14.2-0.78,21.3-1.16c1.37-0.07,2.75-0.01,4.54-0.01
			C276.023,341.094,280.333,348.014,286.893,353.264z M253.693,344.684c0.02-1.13-0.74-1.94-1.8-1.94
			c-1.44-0.01-2.37,1.08-2.37,2.75c0,1.06,0.58,1.68,1.57,1.68C252.743,347.184,253.673,346.304,253.693,344.684z M241.963,347.484
			c0.75-0.25,1.35-0.9,2.11-1.43c-1.96-2-4.18-2.11-6.44-1.78c-5.8,0.86-11.62,1.21-17.48,1.34c-1.96,0.04-3.92,0.45-6.55,0.77
			c2.26,1.81,2.26,1.87,3.83,1.97c6.96,0.43,13.92,0.57,20.88-0.17C239.543,348.054,240.793,347.864,241.963,347.484z"/>
		<path id="XMLID_447_" style="fill:#FBBC08;" d="M270.263,326.414c0.08,0.49,0.11,0.99,0.1,1.49c-0.01,1.03-0.53,1.64-1.52,1.78
			c-0.62,0.09-1.25,0.1-1.87,0.14c-8.21,0.6-16.42,1.34-24.64,1.73c-6.72,0.33-13.47,0.25-20.21,0.32c-0.61,0.01-1.24-0.1-1.85-0.23
			c-3.16-0.67-3.75-1.62-3.75-4.86c0.01-4.37-0.22-8.73-0.34-13.1c-0.05-1.85-0.25-3.72,0.21-5.73c1-0.13,1.96-0.34,2.93-0.38
			c16.32-0.59,32.64-1.19,49.14-1.34c0.66,2.07,0.87,4.03,0.85,5.99C269.263,316.984,269.483,321.714,270.263,326.414z"/>
		<path id="XMLID_442_" style="fill:#FBBC08;" d="M257.863,277.594c-1.96-3.44-4.68-5.44-8.81-5.04c-0.25,0.02-0.5,0.01-0.75-0.01
			c-3.07-0.27-5.49,0.96-7.77,2.95c-2.97,2.6-3.28,6.61-2.27,9.58c0.41,1.2,1.17,2.21,2.27,2.88c2.27,1.38,4.66,2.38,6.63,2.33
			c3.91,0.05,7.05-1.12,9.29-3.18C259.183,284.584,259.693,280.814,257.863,277.594z M384.193,260.484c0.07,0.53,0.28,1.14,0.21,1.7
			c-1,7.81-2.02,15.61-3.09,23.41c-0.13,0.98-0.5,1.94-0.86,2.86c-0.68,1.72-1.86,2.95-3.73,3.39c-3.89,0.9-7.74,2.18-11.68,2.61
			c-12.66,1.4-25.3,2.97-38.04,3.54c-2,0.09-4,0.12-5.99,0.22c-14.61,0.7-29.21,1.49-43.82,2.11c-10.74,0.46-21.49,0.7-32.23,1.06
			c-9.5,0.31-18.99,0.69-28.49,0.99c-6.49,0.21-12.99,0.38-19.49,0.51c-16.62,0.35-33.24,0.62-49.87,1.03
			c-3.99,0.09-7.97,0.61-11.95,0.9c-1.75,0.13-3.5,0.15-5.24,0.25c-2.37,0.13-4.74,0.41-7.11,0.42c-3.98,0.02-8,0.16-11.83-1.22
			c-5.04-1.82-9.02-4.87-10.89-10.09c-0.97-2.7-1.79-5.46-2.53-8.23c-1.44-5.43-2.09-11-2.81-17.09c2.92-0.23,5.39-0.58,7.87-0.59
			c18.62-0.08,37.25-0.04,55.88-0.15c11.5-0.06,23-0.25,34.49-0.46c19.25-0.34,38.5-0.7,57.75-1.14c13.87-0.32,27.73-0.87,41.6-1.13
			c14.38-0.27,28.7-1.78,43.08-1.86c7.12-0.04,14.23-0.74,21.35-1.11c7.24-0.37,14.48-0.67,21.71-1.08
			C380.333,261.224,382.163,260.794,384.193,260.484z M343.913,290.784c0.46-0.35,0.69-1.32,0.62-1.96c-0.05-0.43-0.76-1-1.26-1.12
			c-1.08-0.24-2.21-0.32-3.31-0.31c-12.84,0.06-25.65,0.81-38.45,1.83c-0.32,0.03-0.64,0.22-0.95,0.33
			c-0.12,1.24,0.72,1.67,1.56,1.8c2.45,0.35,4.93,0.77,7.4,0.8c9.85,0.1,19.69,0.07,29.54,0.08c0.62,0,1.29,0.1,1.85-0.09
			C341.963,291.804,343.053,291.434,343.913,290.784z M337.253,282.764c0.03-0.3-0.18-0.74-0.42-0.91c-0.4-0.27-0.9-0.49-1.37-0.53
			c-2.24-0.18-4.45,0.03-6.57,0.83c-0.19,0.07-0.29,0.37-0.58,0.77c0.46,0.31,0.88,0.77,1.38,0.9c0.71,0.19,1.48,0.21,2.21,0.17
			c1.6-0.07,3.2-0.2,4.78-0.39C336.913,283.574,337.223,283.074,337.253,282.764z"/>
		<path id="XMLID_393_" d="M409.933,284.104c2.62,7.41-0.42,16.45-6.99,20.79c-2.16,1.42-4.44,2.1-6.88,1.29
			c-0.46-0.77,0-1.07,0.36-1.4c1.55-1.44,3.14-2.83,4.65-4.32c3.39-3.36,5.46-7.36,5.85-12.19c0.11-1.23,0.34-2.48,0.74-3.65
			c0.2-0.59,0.91-1,1.47-1.57C409.513,283.544,409.823,283.784,409.933,284.104z"/>
		<path id="XMLID_392_" d="M398.893,273.764c2.12,4.86,2.76,9.49,1.65,14.24c-0.73,3.15-1.77,6.24-2.81,9.31
			c-1.3,3.86-4.16,6.46-7.44,8.62c-0.71,0.47-1.59,0.73-2.42,0.95c-1.32,0.35-2.45-0.93-2.03-2.26c0.14-0.47,0.38-0.93,0.68-1.32
			c0.61-0.78,1.2-1.64,1.97-2.23c3.21-2.47,4.89-5.85,6.28-9.55c1.69-4.5,2.46-9.13,2.83-13.87
			C397.693,276.464,397.513,275.144,398.893,273.764z"/>
		<path id="XMLID_390_" d="M363.353,152.494c0.01,16.34,0.01,32.69,0.02,49.03c0,1,0.04,2-0.06,2.99c-0.18,1.72-0.86,2.14-3.29,2.05
			c-1.16-1.91-1.19-3.78-1.15-5.66c0.16-6.98,0.27-13.96,0.5-20.94c0.32-9.23,0.76-18.45,1.09-27.67c0.11-2.86,0.03-5.73,0.05-8.59
			c0.01-1.59-0.31-3.25,1-4.89c0.36,0.85,0.74,1.47,0.9,2.15C363.303,144.754,363.353,148.624,363.353,152.494z"/>
		<path id="XMLID_389_" d="M357.163,160.294c0.17,3.35,0.34,6.73-0.75,9.98c-0.14,0.42-0.55,0.74-1.03,1.36
			c-0.41-0.78-0.85-1.27-0.9-1.79c-0.11-1.11-0.09-2.24,0-3.35c0.17-2.23,0.4-4.46,0.63-6.69c0.11-1.07,0.04-2.23,1.09-2.98
			C357.353,157.754,357.103,159.104,357.163,160.294z"/>
		<path id="XMLID_387_" d="M336.683,283.604c-1.58,0.19-3.18,0.32-4.78,0.39c-0.73,0.04-1.5,0.02-2.21-0.17
			c-0.5-0.13-0.92-0.59-1.38-0.9c0.29-0.4,0.39-0.7,0.58-0.77c2.12-0.8,4.33-1.01,6.57-0.83c0.47,0.04,0.97,0.26,1.37,0.53
			c0.24,0.17,0.45,0.61,0.42,0.91C337.223,283.074,336.913,283.574,336.683,283.604z"/>
		<path id="XMLID_383_" d="M301.513,289.224c12.8-1.02,25.61-1.77,38.45-1.83c1.1-0.01,2.23,0.07,3.31,0.31
			c0.5,0.12,1.21,0.69,1.26,1.12c0.07,0.64-0.16,1.61-0.62,1.96c-0.86,0.65-1.95,1.02-3,1.36c-0.56,0.19-1.23,0.09-1.85,0.09
			c-9.85-0.01-19.69,0.02-29.54-0.08c-2.47-0.03-4.95-0.45-7.4-0.8c-0.84-0.13-1.68-0.56-1.56-1.8
			C300.873,289.444,301.193,289.254,301.513,289.224z"/>
		<path id="XMLID_376_" d="M251.893,342.744c1.06,0,1.82,0.81,1.8,1.94c-0.02,1.62-0.95,2.5-2.6,2.49c-0.99,0-1.57-0.62-1.57-1.68
			C249.523,343.824,250.453,342.734,251.893,342.744z"/>
		<path id="XMLID_372_" d="M248.303,272.544c0.25,0.02,0.5,0.03,0.75,0.01c4.13-0.4,6.85,1.6,8.81,5.04
			c1.83,3.22,1.32,6.99-1.41,9.51c-2.24,2.06-5.38,3.23-9.29,3.18c-1.97,0.05-4.36-0.95-6.63-2.33c-1.1-0.67-1.86-1.68-2.27-2.88
			c-1.01-2.97-0.7-6.98,2.27-9.58C242.813,273.504,245.233,272.274,248.303,272.544z M253.063,284.024c1.48-1.28,1.7-2.68,0.72-4.3
			c-1.46-2.43-2.86-3.03-5.66-2.19c-2.03,0.61-4.01,1.39-6.19,2.15c-0.41,3.62,0,4.46,2.69,5.5c0.8,0.31,1.67,0.53,2.53,0.63
			C249.353,286.054,251.363,285.484,253.063,284.024z"/>
		<path id="XMLID_369_" d="M213.603,346.384c2.63-0.32,4.59-0.73,6.55-0.77c5.86-0.13,11.68-0.48,17.48-1.34
			c2.26-0.33,4.48-0.22,6.44,1.78c-0.76,0.53-1.36,1.18-2.11,1.43c-1.17,0.38-2.42,0.57-3.65,0.7c-6.96,0.74-13.92,0.6-20.88,0.17
			C215.863,348.254,215.863,348.194,213.603,346.384z"/>
		<path id="XMLID_356_" d="M195.583,166.614c-2.36,0.07-4.74,0.03-7.1-0.03c-0.45-0.01-0.89-0.34-1.34-0.52
			c4.33-1.36,8.69-1.69,13.03-1.93c8.36-0.46,16.73-0.68,25.09-1.04c3.25-0.15,6.49-0.4,9.73-0.61c13.96-0.89,27.95-1.36,41.89-2.76
			c4.47-0.45,8.97-0.56,13.47-0.82c5.86-0.34,11.72-0.69,17.58-0.99c1.5-0.07,3.01,0,4.15,1.26c0.4,0.43,0.34,1.36-0.17,1.63
			c-0.33,0.17-0.67,0.38-1.02,0.44c-0.86,0.16-1.73,0.3-2.6,0.35c-10.36,0.51-20.72,0.99-31.07,1.53c-4.5,0.23-8.98,0.65-13.47,0.89
			c-12.6,0.66-25.2,1.35-37.81,1.86c-6.74,0.28-13.5,0.18-20.25,0.32C202.323,166.264,198.963,166.524,195.583,166.614z"/>
		<path id="XMLID_355_" d="M199.773,220.754c-2.24,0.1-4.49,0.14-6.74,0.13c-0.99,0-2.02-0.07-2.72-1.01c0.79-0.97,1.95-0.87,3.03-1
			c12.53-1.5,25.13-2,37.74-2.34c13.23-0.36,26.46-0.93,39.68-1.49c10.98-0.46,21.96-1.04,32.87-2.38c1.49-0.18,2.97-0.45,4.45-0.52
			c1.16-0.05,1.89,0.73,1.99,1.81c0.1,1.14-0.36,2.02-1.46,2.3c-1.44,0.37-2.93,0.65-4.41,0.79c-8.95,0.85-17.92,1.5-26.92,1.71
			c-13.48,0.3-26.96,0.81-40.44,1.12c-7.87,0.18-15.74,0.06-23.61,0.21C208.743,220.174,204.263,220.554,199.773,220.754z"/>
		<path id="XMLID_354_" d="M223.263,202.324c-7.25,0.13-14.49,0.37-21.73,0.63c-3.24,0.12-6.47,0.45-9.7,0.59
			c-0.8,0.04-1.62-0.28-2.43-0.44c11.37-2.64,22.82-3.19,34.31-3.4c16.11-0.3,32.22-0.83,48.32-1.36
			c5.12-0.17,10.22-0.79,15.33-0.94c8.74-0.26,17.48-0.3,26.22-0.44c1.28-0.02,2.48,0.23,3.55,0.97c0.63,0.44,0.67,1.57,0,1.9
			c-0.66,0.32-1.38,0.65-2.1,0.72c-1.48,0.15-2.99,0.17-4.48,0.18c-8.75,0.06-17.49,0-26.23,0.18c-7.87,0.17-15.73,0.7-23.59,0.87
			C248.243,202.054,235.753,202.104,223.263,202.324z"/>
		<path id="XMLID_353_" d="M249.003,153.084c-20.22,0.74-40.44,1.45-60.67,0.91c-0.96-0.03-2.03,0.24-3.14-1.22
			c1.3-0.31,2.23-0.65,3.18-0.73c1.74-0.13,3.49-0.11,5.24-0.14c12.48-0.27,24.97-0.37,37.44-0.86c10.98-0.42,21.94-1.29,32.9-1.93
			c13.96-0.82,27.92-1.71,41.91-1.77c2.12,0,4.24-0.22,6.36-0.21c1.24,0.01,2.5,0.17,3.69,0.47c0.47,0.12,1.08,0.81,1.09,1.25
			s-0.59,1.14-1.05,1.28c-1.07,0.31-2.21,0.44-3.32,0.49c-4.12,0.18-8.24,0.44-12.36,0.43c-12.25-0.05-24.46,0.66-36.68,1.36
			C258.733,152.694,253.863,152.904,249.003,153.084z"/>
		<path id="XMLID_350_" d="M183.153,125.874c0.78,0.66,0.9,1.54,0.6,2.38c-0.42,1.16-0.85,2.39-1.61,3.33
			c-6.16,7.73-11.3,16.16-16.92,24.25c-1.14,1.63-1.55,3.21-1.28,5.22c0.59,4.45,0.92,8.94,1.25,13.42c0.18,2.5-0.68,3.44-3.14,3.69
			c-1.98,0.19-3.97,0.32-5.97,0.43c-5.35,0.29-10.64,1.35-16.03,1.23c-3.7-0.08-4.56-0.68-4.97-4.45c-0.25-2.23-0.4-4.48-0.56-6.72
			c-0.2-2.86-0.39-5.72-0.52-8.59c-0.08-1.62-0.11-3.25-0.01-4.86c0.16-2.42,1.57-3.88,3.89-4.43c0.96-0.23,1.97-0.29,2.96-0.41
			c3.59-0.41,7.18-0.91,10.78-1.2c3.45-0.27,6.95-0.82,10.68,0.77c1.77-2.63,3.32-5.03,4.97-7.36c3.53-5,7.09-9.97,10.68-14.92
			c0.57-0.78,1.3-1.51,2.1-2.05C181.143,124.864,182.203,125.064,183.153,125.874z M160.223,172.954c-0.12-2.28-0.23-4.63-0.38-6.99
			c-0.02-0.17-0.29-0.33-0.62-0.68c-0.4,0.42-0.86,0.79-1.17,1.26c-0.88,1.37-1.65,2.8-2.56,4.14c-1.79,2.65-4.47,2.64-5.89-0.18
			c-1.63-3.22-2.98-6.59-4.34-9.93c-0.26-0.63-0.16-1.48,0.01-2.17c0.28-1.13,1.36-1.44,2.36-0.83c1.57,0.97,2.39,2.48,3.14,4.09
			c0.44,0.94,0.51,2.2,2,2.65c1.8-2.74,3.6-5.43,5.34-8.16c0.49-0.77,0.61-1.62-0.26-2.53c-1.71-0.3-3.55-0.1-5.41,0.13
			c-3.7,0.45-7.31,1.6-11.11,1.45c-1.04-0.05-2.1,0.48-3.35,0.8c0.56,6.4,1.1,12.58,1.65,18.9
			C143.563,175.354,157.563,174.004,160.223,172.954z"/>
		<path id="XMLID_342_" d="M178.603,179.234c2.47,3.17,2.45,3.49,0.6,6.34c-3.18,4.92-6.29,9.89-9.46,14.83
			c-0.64,0.99-0.78,1.98-0.73,3.17c0.3,6.1,0.52,12.21,0.66,18.32c0.05,2.26-0.83,3.25-3.06,3.44c-2.35,0.21-4.73,0.14-7.1,0.23
			c-3.62,0.13-7.23,0.32-10.84,0.44c-2.37,0.08-4.75,0.2-7.11,0.11c-3.26-0.13-4.09-1.02-4.29-4.36c-0.29-4.73-0.54-9.46-0.79-14.2
			c-0.12-2.36-0.22-4.73-0.32-7.09c-0.02-0.5,0.01-1,0.04-1.5c0.08-1.4,0.83-2.35,2.13-2.78c0.81-0.27,1.69-0.46,2.54-0.51
			c4.98-0.31,9.97-0.6,14.95-0.83c2.49-0.12,4.97-0.17,7.42,0.62c1.62,0.53,2.05,0.26,3.05-1.31c2.56-3.99,5.04-8.03,7.63-12
			C175.313,180.034,175.383,180.084,178.603,179.234z M164.933,220.344c0.23-3.69,0.37-7.2-0.76-11.59c-0.5,0.96-0.66,1.3-0.84,1.62
			c-0.69,1.33-1.4,2.64-2.09,3.97c-0.51,0.99-0.91,2.07-1.53,2.99c-0.79,1.15-2.03,1.32-3.35,1.12c-1.2-0.19-1.52-1.03-1.8-2.07
			c-0.98-3.61-2.05-7.19-3.06-10.79c-0.2-0.71-0.39-1.46-0.34-2.18c0.05-0.88,0.35-1.74,1.6-1.77c2.25,1.46,3.01,4.12,4.59,6.39
			c1.95-2.45,3.35-5.06,4.84-7.7c-1.4-1.04-2.66-1.9-4.47-1.73c-4.96,0.48-9.93,0.83-14.89,1.25c-0.71,0.06-1.41,0.21-2.14,0.33
			c-0.6,2.58-0.01,4.89,0.29,7.22c0.31,2.34,0.43,4.72,0.74,7.06c0.3,2.29-0.4,4.71,0.76,6.98c1.33,0,2.57,0.05,3.8-0.01
			c2.61-0.12,5.22-0.34,7.84-0.44c2.86-0.1,5.73-0.06,8.6-0.16C163.413,220.814,164.103,220.534,164.933,220.344z"/>
		<path id="XMLID_307_" d="M119.133,188.524c1.53,6.74,1.94,13.57,1.66,20.46c-0.05,1.25-0.35,2.43-1.6,3.54
			c-1.05-1.64-1.2-3.14-1.23-4.64c-0.1-5.99-0.19-11.98-0.24-17.97c-0.01-0.67,0.24-1.34,0.43-2.33
			C118.673,188.064,119.073,188.254,119.133,188.524z"/>
		<path id="XMLID_300_" d="M130.303,102.364c-3.81,0.65-7.66,1.09-11.49,1.62c-2.38,0.32-4.62,1.05-6.78,2.08
			c-1.49,0.71-2.81,1.71-3.66,3.12c-2.08,3.44-3.88,7-4.1,11.14c-0.16,3.12-0.51,6.24-0.5,9.36c0.03,11.13-0.47,22.24-1.13,33.34
			c-0.63,10.64-0.08,21.24,0.47,31.85c0.37,7.24,1.09,14.48,1.08,21.72c0,15.39,1.05,30.73,1.69,46.09
			c0.02,0.59,0.16,1.19,0.28,1.95c0.74,0.08,1.33,0.22,1.92,0.2c10.25-0.23,20.49-0.56,30.74-0.7c12.62-0.17,25.25-0.16,37.87-0.27
			c7.13-0.06,14.26-0.12,21.38-0.31c16.87-0.43,33.74-0.95,50.61-1.42c10.62-0.29,21.25-0.42,31.87-0.88
			c11.98-0.51,23.96-1.35,35.94-1.97c15.73-0.81,31.46-1.54,47.19-2.33c0.83-0.04,1.66-0.29,2.66-0.48c0.23-2.1,0.5-4.07,0.65-6.05
			c0.18-2.49,0.21-4.99,0.41-7.49c0.58-7.35,1.36-14.69,1.8-22.04c0.63-10.73,1.28-21.47,1.48-32.22
			c0.27-14.12,0.16-28.25,0.11-42.38c-0.03-8.37-0.25-16.75-0.44-25.12c-0.11-4.9-1.12-9.67-2.43-14.38
			c-0.31-1.13-0.87-1.95-1.87-2.65c-1.52-1.06-2.97-2.28-4.25-3.62c-1-1.04-2.05-1.79-3.48-1.99c-3.46-0.48-6.91-1.13-10.38-1.43
			c-4.48-0.38-8.98-0.56-13.48-0.71c-6-0.19-11.99-0.37-17.99-0.38c-6.62-0.01-13.25,0.23-19.87,0.27
			c-16.13,0.09-32.26,0.1-48.39,0.19c-6.37,0.03-12.75,0.33-19.12,0.26c-14.27-0.17-28.5,0.6-42.73,1.33
			c-11.73,0.59-23.46,1.31-35.18,2.14C144.203,100.694,137.223,101.164,130.303,102.364z M95.063,266.004
			c1.69-0.28,3.61-0.59,5.72-0.93c0.04-3.21-0.07-6.18-0.23-9.16c-0.71-13.1-1.36-26.21-1.41-39.34
			c-0.02-6.62-0.46-13.24-0.89-19.85c-0.56-8.73-1.09-17.46-0.78-26.22c0.32-8.86,0.76-17.72,1.13-26.59
			c0.26-5.99,0.49-11.99,0.72-17.98c0.23-5.97,1.68-11.57,4.59-16.83c2.09-3.76,5.06-6.11,9.29-6.84c0.99-0.17,1.98-0.31,2.96-0.46
			c2.72-0.42,5.47-0.65,8.13-1.28c10.51-2.51,21.23-3.23,31.95-4c13.21-0.95,26.43-1.8,39.65-2.63c6.73-0.42,13.47-0.85,20.22-1.03
			c13.49-0.35,26.99-0.53,40.49-0.79c21.87-0.42,43.75,0.08,65.61-0.74c9.86,0.48,19.72,0.9,29.58,1.49c2.6,0.15,5.18,0.77,7.75,1.3
			c3.3,0.68,6.03,2.29,7.91,5.2c0.47,0.73,1.08,1.37,1.67,2.01c1.4,1.49,2.41,3.2,3.01,5.13c1.5,4.78,2.69,9.65,2.94,14.66
			c0.35,6.87,0.55,13.74,0.73,20.61c0.55,21.62,0.61,43.24-0.63,64.85c-0.33,5.87-0.6,11.74-0.99,17.6
			c-0.66,9.97-1.4,19.94-2.1,29.91c-0.04,0.59,0.06,1.19,0.1,1.93c2.25,0.46,4.36,0.24,6.45,0.12c2-0.11,3.98-0.27,6.24,1.08
			c0.16-1.49,0.28-2.34,0.34-3.2c0.67-9.85,1.33-19.7,2-29.55c1.01-14.73,1.04-29.47,0.45-44.22c-0.44-11.11-0.67-22.23-1.01-33.35
			c-0.2-6.49-0.34-12.99-0.7-19.48c-0.5-9.26-1.85-18.37-4.72-27.25c-1.05-3.25-2.39-6.27-4.3-9.09c-2.48-3.7-5.9-6.13-10.17-7.18
			c-3.39-0.84-6.86-1.01-10.41-0.71c-5.22,0.44-10.48,0.75-15.71,0.59c-14.86-0.47-29.71-1.36-44.58-1.78
			c-11.61-0.34-23.25-0.49-34.87-0.27c-18.61,0.35-37.22,1.16-55.84,1.61c-14.62,0.35-29.24,0.81-43.82,1.9
			c-6.6,0.49-13.19,1.15-19.77,1.91c-6.45,0.74-12.89,1.58-19.31,2.61c-5.54,0.88-11.04,2.07-16.55,3.15
			c-3.67,0.71-6.28,2.84-8.16,6.03c-1.79,3.05-3.21,6.23-3.83,9.71c-0.55,3.07-0.96,6.17-1.47,9.25c-0.85,5.2-1.06,10.44-0.97,15.7
			c0.06,3.5,0.07,7-0.01,10.5c-0.17,7.49-0.41,14.99-0.62,22.48c-0.05,1.62-0.1,3.25-0.19,4.87c-0.36,7.24-0.74,14.48-1.09,21.71
			c-0.06,1.13-0.09,2.26,0.03,3.38c0.77,7.6,0.4,15.23,0.56,22.85c0.06,3.25,0.31,6.49,0.41,9.74c0.2,6.51,1.15,12.94,1.87,19.39
			c0.54,4.85,0.96,9.7,1.47,14.55C94.003,264.024,93.823,265.104,95.063,266.004z M94.753,268.854c0.72,6.09,1.37,11.66,2.81,17.09
			c0.74,2.77,1.56,5.53,2.53,8.23c1.87,5.22,5.85,8.27,10.89,10.09c3.83,1.38,7.85,1.24,11.83,1.22c2.37-0.01,4.74-0.29,7.11-0.42
			c1.74-0.1,3.49-0.12,5.24-0.25c3.98-0.29,7.96-0.81,11.95-0.9c16.63-0.41,33.25-0.68,49.87-1.03c6.5-0.13,13-0.3,19.49-0.51
			c9.5-0.3,18.99-0.68,28.49-0.99c10.74-0.36,21.49-0.6,32.23-1.06c14.61-0.62,29.21-1.41,43.82-2.11c1.99-0.1,3.99-0.13,5.99-0.22
			c12.74-0.57,25.38-2.14,38.04-3.54c3.94-0.43,7.79-1.71,11.68-2.61c1.87-0.44,3.05-1.67,3.73-3.39c0.36-0.92,0.73-1.88,0.86-2.86
			c1.07-7.8,2.09-15.6,3.09-23.41c0.07-0.56-0.14-1.17-0.21-1.7c-2.03,0.31-3.86,0.74-5.71,0.85c-7.23,0.41-14.47,0.71-21.71,1.08
			c-7.12,0.37-14.23,1.07-21.35,1.11c-14.38,0.08-28.7,1.59-43.08,1.86c-13.87,0.26-27.73,0.81-41.6,1.13
			c-19.25,0.44-38.5,0.8-57.75,1.14c-11.49,0.21-22.99,0.4-34.49,0.46c-18.63,0.11-37.26,0.07-55.88,0.15
			C100.143,268.274,97.673,268.624,94.753,268.854z M393.123,187.594c0.2,9.37,0.01,18.75-0.1,28.13c-0.04,3-0.37,5.99-0.57,8.98
			c-0.74,11.35-1.42,22.7-2.27,34.05c-0.38,4.98-1.06,9.94-1.7,14.89c-0.57,4.34-1.16,8.67-1.97,12.97
			c-0.37,1.93-1.09,3.86-2.01,5.6c-1.62,3.06-4.15,5.24-7.36,6.67c-3.7,1.66-7.61,2.55-11.61,2.75c-7.11,0.37-14.22,0.68-21.35,0.59
			c-3.61-0.04-7.23,0.48-10.84,0.75c-1.37,0.1-2.74,0.25-4.11,0.31c-8.75,0.34-17.5,0.6-26.24,1c-7.99,0.36-15.98,0.86-23.97,1.31
			c-0.48,0.02-0.96,0.17-1.64,0.3c-0.47,3.07-1.21,6.15-0.98,9.22c0.39,5.22,1.24,10.41,1.85,15.62c0.15,1.31,0.66,2.37,1.51,3.35
			c3.12,3.57,6.19,7.19,9.33,10.76c1.91,2.18,3.51,4.54,4.66,7.21c1.35,3.15,0.44,5.34-2.87,6.35c-1.9,0.58-3.87,1.03-5.84,1.24
			c-16.31,1.78-32.68,1.92-49.06,1.51c-4.5-0.11-9-0.03-13.5,0c-6.62,0.05-13.25,0.13-19.87,0.17c-1.13,0.01-2.26-0.05-3.37-0.17
			c-2.47-0.26-3.58-1.5-3.36-4c0.25-2.9,1.24-5.6,2.62-8.15c1.5-2.79,3.6-5.1,5.78-7.35c2.27-2.33,4.42-4.74,6.26-7.45
			c1.04-1.53,1.53-3.11,1.53-4.91c-0.02-6.75-0.03-13.5-0.05-20.24c0-0.24-0.14-0.47-0.34-1.15c-1.01,0-1.87-0.01-2.73,0
			c-10,0.13-20.01,0.24-30.01,0.4c-6.37,0.1-12.72,0.35-19.09,0.88c-8.21,0.68-16.48,0.67-24.73,1c-2.37,0.09-4.74,0.25-7.1,0.52
			c-6.04,0.68-12.04,0.2-17.83-1.41c-6.68-1.86-11.78-5.92-14.53-12.53c-1.5-3.59-2.36-7.36-3.18-11.15
			c-1.58-7.34-2.61-14.77-3.48-22.22c-0.68-5.83-1-11.71-1.76-17.53c-1.45-11.06-1.76-22.17-1.73-33.3
			c0.07-21.63-0.02-43.27,0.11-64.9c0.05-7.49,0.38-15,0.89-22.48c0.44-6.47,1.39-12.92,2.96-19.24c0.98-3.93,2.76-7.48,4.99-10.84
			c2.24-3.39,5.28-5.67,9.21-6.63c5.58-1.38,11.18-2.63,16.9-3.34c5.95-0.74,11.87-1.75,17.82-2.45c6.57-0.78,13.17-1.42,19.76-2
			c5.48-0.48,10.97-0.78,16.46-1.15c1.5-0.1,3-0.21,4.5-0.25c12.37-0.34,24.74-0.64,37.12-1c12.62-0.36,25.24-0.86,37.86-1.14
			c17.26-0.39,34.51-0.19,51.75,0.71c8.73,0.45,17.45,1.29,26.18,1.86c3.48,0.22,6.99,0.24,10.48,0.26c7,0.03,14-0.08,21,0.02
			c3.79,0.05,7.4,1,10.72,2.96c2.52,1.49,4.58,3.39,6.36,5.72c2.53,3.33,4.19,6.99,5.5,10.97c3.04,9.24,4.29,18.75,4.85,28.37
			c0.51,8.98,0.57,17.99,0.9,26.98C392.233,165.864,392.893,176.724,393.123,187.594z M283.503,354.384
			c1.05-0.08,2.17-0.13,3.39-1.12c-6.56-5.25-10.87-12.17-15.74-18.16c-1.79,0-3.17-0.06-4.54,0.01c-7.1,0.38-14.2,0.93-21.3,1.16
			c-6.62,0.22-13.24,0.13-19.86,0.14c-3.11,0.01-6.23-0.04-9.04-1.38c-0.49,0.38-0.83,0.56-1.05,0.84
			c-2.47,3.14-4.93,6.29-7.37,9.44c-1.83,2.36-3.64,4.74-5.46,7.12c-0.69,0.9-1.23,1.86-0.85,3.18c1.42,0.56,2.9,0.25,4.37,0.12
			c4.6-0.39,9.2-0.98,13.8-1.09c5.87-0.13,11.75-0.02,17.6,0.27c12.74,0.64,25.47,0.52,38.2-0.04
			C278.273,354.764,280.893,354.604,283.503,354.384z M270.363,327.904c0.01-0.5-0.02-1-0.1-1.49c-0.78-4.7-1-9.43-0.95-14.19
			c0.02-1.96-0.19-3.92-0.85-5.99c-16.5,0.15-32.82,0.75-49.14,1.34c-0.97,0.04-1.93,0.25-2.93,0.38c-0.46,2.01-0.26,3.88-0.21,5.73
			c0.12,4.37,0.35,8.73,0.34,13.1c0,3.24,0.59,4.19,3.75,4.86c0.61,0.13,1.24,0.24,1.85,0.23c6.74-0.07,13.49,0.01,20.21-0.32
			c8.22-0.39,16.43-1.13,24.64-1.73c0.62-0.04,1.25-0.05,1.87-0.14C269.833,329.544,270.353,328.934,270.363,327.904z"/>
		<path id="XMLID_295_" d="M111.113,181.624c1,9.04,1.99,18.08,2.98,27.12c0.63,5.7,1.32,11.39,1.86,17.1
			c0.14,1.45-0.06,2.97-0.31,4.42c-0.07,0.44-0.8,0.97-1.31,1.08c-0.76,0.16-1.48-0.22-1.72-1.08c-0.23-0.83-0.48-1.68-0.56-2.54
			c-0.67-7.19-1.41-14.39-1.92-21.59c-0.51-7.21-0.8-14.44-1.15-21.66c-0.06-1.11,0-2.25,0.17-3.35c0.08-0.52,0.53-0.99,0.8-1.44
			C111.043,180.094,111.033,180.894,111.113,181.624z"/>
		<path id="XMLID_293_" d="M82.263,84.094c-0.29,0.34-0.53,0.85-0.93,1.06c-1.61,0.83-2.65,2.2-3.66,3.63
			c-3.61,5.08-5.94,10.61-6.2,16.91c-0.05,1.37-0.14,2.74-0.3,4.1c-0.12,0.95-0.4,1.88-0.7,3.27c-0.72-0.91-1.26-1.41-1.57-2.02
			c-1.03-2.05-1.3-4.27-1.25-6.53c0.15-7.47,3.14-13.73,8.23-19.03c0.92-0.96,2.16-1.69,3.38-2.24
			C80.273,82.794,81.473,82.754,82.263,84.094z"/>
		<path id="XMLID_289_" d="M88.203,82.744c1.1-1.01,2.32-1.94,3.87-2.15c0.54-0.07,1.12,0.1,1.7,0.17
			c-0.05,1.53-1.06,2.14-1.88,2.86c-5.13,4.53-8.49,10.11-9.71,16.85c-0.44,2.44-0.31,4.97-0.55,7.45
			c-0.14,1.48-0.44,2.95-0.81,4.38c-0.09,0.34-0.73,0.75-1.12,0.75c-0.41,0.01-1.05-0.35-1.19-0.7c-0.43-1.15-0.89-2.36-0.98-3.58
			C76.813,98.364,80.523,89.724,88.203,82.744z"/>
		<g id="XMLID_288_">
			<g id="XMLID_292_">
				<path id="XMLID_43_" d="M236.948,140.385c-0.488-1.853-1.009-3.695-1.601-5.515c-0.312-0.959-0.373-1.809,0.038-2.768
					c0.762-1.771,1.14-3.662,1.327-5.575c0.46-4.725,0.274-9.434-0.406-14.132c-0.241-1.639-0.751-3.207-1.732-4.561
					c-0.389-0.537-0.894-1.135-1.48-1.354c-2.143-0.795-4.27-0.817-6.293,0.499c-1.464,0.954-2.626,2.176-3.552,3.64
					c-1.392,2.215-2.434,4.588-3.338,7.033c-1.497,4.057-1.952,8.239-1.628,12.526c0.197,2.631,0.965,5.109,2.28,7.39
					c0.471,0.822,1.085,1.59,1.749,2.264c1.053,1.069,2.385,1.529,3.903,1.513c1.672-0.011,3.042-0.713,4.281-1.738
					c0.521-0.433,0.998-0.921,1.765-1.634c0.482,1.431,0.866,2.587,1.272,3.733c0.225,0.647,0.444,1.299,0.746,1.902
					c0.137,0.28,0.439,0.576,0.724,0.669c1.124,0.362,2.275-0.477,2.259-1.666C237.255,141.865,237.14,141.103,236.948,140.385z
					 M234.761,124.175c-0.066,1.365-0.285,2.725-0.466,4.079c-0.044,0.318-0.219,0.619-0.356,0.992
					c-0.636-0.351-0.669-0.932-0.85-1.392c-0.356-0.905-0.751-1.787-1.497-2.428c-0.34-0.296-0.8-0.537-1.239-0.636
					c-0.883-0.192-1.497,0.329-1.458,1.233c0.033,0.674,0.154,1.365,0.334,2.017c0.658,2.374,1.36,4.736,2.111,7.335
					c-0.696,1.096-1.502,2.111-2.571,2.889c-0.778,0.565-1.518,0.554-2.226-0.104c-0.395-0.367-0.691-0.839-1.009-1.288
					c-1.321-1.864-1.672-4.046-1.809-6.238c-0.296-4.61-0.005-9.199,1.557-13.584c0.702-1.984,1.76-3.854,2.746-5.729
					c0.543-1.036,1.321-1.913,2.352-2.538c1.332-0.806,1.902-0.674,2.681,0.625c0.757,1.266,1.058,2.67,1.261,4.1
					C234.816,117.049,234.931,120.606,234.761,124.175z"/>
			</g>
			<g id="XMLID_285_">
				<path id="XMLID_39_" d="M270.596,114.149c-1.425-0.181-2.785,0.022-4.139,0.016c-1.316-0.011-2.675,0.433-4.199-0.285
					c0.345-0.318,0.493-0.548,0.702-0.625c0.444-0.164,0.91-0.302,1.381-0.362c2.034-0.252,4.073-0.493,6.118-0.696
					c0.537-0.055,1.102-0.022,1.634,0.077c0.861,0.164,1.332,0.674,1.332,1.579c-0.005,0.948-0.066,1.924-0.285,2.845
					c-0.636,2.659-1.387,5.285-2.39,7.85c-1.469,3.761-2.79,7.576-4.155,11.375c-0.132,0.367-0.143,0.778-0.219,1.201
					c0.899,0.301,1.721,0.121,2.516,0.022c2.308-0.274,4.61-0.619,6.918-0.926c0.4-0.055,0.817-0.115,1.211-0.06
					c0.537,0.077,0.943,0.636,0.97,1.184c0.022,0.559-0.296,0.921-0.762,1.102c-0.439,0.17-0.921,0.263-1.398,0.323
					c-3.87,0.482-7.746,0.954-11.616,1.425c-0.203,0.022-0.411,0.06-0.614,0.06c-1.277-0.011-2.083-0.795-1.99-2.078
					c0.06-0.811,0.247-1.634,0.515-2.401c0.954-2.708,1.897-5.427,2.988-8.086c1.381-3.355,2.911-6.65,4.358-9.972
					C269.955,116.604,270.58,115.536,270.596,114.149z"/>
			</g>
			<g id="XMLID_284_">
				<path id="XMLID_34_" d="M244.804,136.778c0.8-0.274,0.833-0.981,1.009-1.529c0.724-2.226,1.146-4.523,1.272-6.852
					c0.208-3.969,0.312-7.943,0.466-11.912c0.011-0.411,0-0.822,0.033-1.233c0.049-0.521,0.334-0.888,0.844-1.042
					c0.378-0.121,0.883,0.241,0.976,0.844c0.197,1.212,0.362,2.439,0.428,3.667c0.208,3.98-0.214,7.938-0.543,11.896
					c-0.132,1.639-0.373,3.267-0.63,4.89c-0.115,0.735-0.351,1.464-0.587,2.176c-0.148,0.45-0.356,0.894-0.608,1.299
					c-1.02,1.617-2.686,1.825-3.941,0.417c-1.557-1.743-2.938-3.629-3.481-5.97c-0.384-1.667-0.839-3.333-1.047-5.021
					c-0.515-4.155-0.526-8.343-0.504-12.521c0-0.471,0.088-0.959,0.252-1.398c0.334-0.883,1.414-1.003,1.973-0.258
					c0.433,0.57,0.548,1.244,0.587,1.935c0.121,1.919,0.236,3.832,0.362,5.745c0.214,3.421,0.587,6.83,1.294,10.185
					c0.269,1.261,0.757,2.478,1.195,3.7C244.283,136.158,244.585,136.46,244.804,136.778z"/>
			</g>
			<g id="XMLID_283_">
				<path id="XMLID_30_" d="M252.983,128.533c0.137-5.093,0.159-9.341,0.735-13.557c0.044-0.34,0.055-0.691,0.159-1.009
					c0.318-0.965,1.497-1.173,2.127-0.367c0.241,0.312,0.433,0.713,0.51,1.096c0.164,0.806,0.318,1.623,0.323,2.439
					c0.011,2.05-0.027,4.106-0.115,6.156c-0.17,4.04-0.384,8.069-0.576,12.104c-0.049,1.031-0.06,2.056-0.153,3.081
					c-0.033,0.389-0.186,0.8-0.389,1.14c-0.329,0.548-1.201,0.543-1.584,0.038c-0.565-0.746-0.707-1.617-0.735-2.522
					C253.175,133.988,253.06,130.836,252.983,128.533z"/>
			</g>
			<g id="XMLID_282_">
				<path id="XMLID_13_" d="M254.913,111.446c-0.8-0.044-1.37-0.674-1.365-1.513c0.005-0.784,0.691-1.447,1.453-1.403
					c0.751,0.049,1.442,0.795,1.392,1.508C256.338,110.827,255.642,111.49,254.913,111.446z"/>
			</g>
		</g>
	</g>
</g>

</svg>
